<svg id="Layer_1" data-name="Layer 1" xmlns="http://www.w3.org/2000/svg" xmlns:xlink="http://www.w3.org/1999/xlink" viewBox="0 0 1881.54 2129.33"><defs><style>.cls-1{fill:#c79dc8;}.cls-2{clip-path:url(#clip-path);}.cls-3{fill:#fff;}.cls-4{fill:#371e11;}.cls-5{fill:#e5b18b;}.cls-6{fill:#f6c197;}.cls-7{fill:#0e090a;}.cls-8{fill:#d2a35f;}.cls-9{fill:#f6989a;}.cls-10{fill:#f04d4d;}.cls-11{fill:#e0e1e0;}.cls-12{fill:#e3e5e3;}.cls-13{fill:#010101;}</style><clipPath id="clip-path" transform="translate(-658.89 -264.78)"><circle class="cls-1" cx="1599.66" cy="1205.55" r="940.77"/></clipPath></defs><circle class="cls-1" cx="940.77" cy="940.77" r="940.77"/><g class="cls-2"><path class="cls-3" d="M2099.65,2124.91v269.2H1092.93v-269.2c0-223.13,145.18-412.35,346.24-478.33A503.29,503.29,0,0,1,1952.22,1769C2043.29,1860.09,2099.65,1985.91,2099.65,2124.91Z" transform="translate(-658.89 -264.78)"/><path class="cls-4" d="M2101.13,1302.45c0,109.11-16.05,212.7-44.87,306H1141.42c-28.8-93.25-44.85-196.84-44.85-306,0-408.43,224.88-739.56,502.27-739.56S2101.13,894,2101.13,1302.45Z" transform="translate(-658.89 -264.78)"/><path class="cls-5" d="M824.89,1061.25h227.26a0,0,0,0,1,0,0V1449a56.26,56.26,0,0,1-56.26,56.26H881.15A56.26,56.26,0,0,1,824.89,1449V1061.25A0,0,0,0,1,824.89,1061.25Z"/><path class="cls-6" d="M1951.57,891.85v420.2a232.6,232.6,0,0,1-1.74,28.46,227.31,227.31,0,0,1-4.54,25.33C1921,1468,1829.21,1544,1719.65,1544H1469c-109.55,0-201.37-76-225.61-178.12a227.33,227.33,0,0,1-4.55-25.33,232.6,232.6,0,0,1-1.73-28.46V891.85c0-128.08,103.82-231.92,231.89-231.92h250.7C1847.73,659.93,1951.57,763.77,1951.57,891.85Z" transform="translate(-658.89 -264.78)"/><path class="cls-6" d="M1318.35,1099.81c67.23,101.93-42.09,211.26-144,144a51.13,51.13,0,0,1-14.53-14.52c-67.23-101.93,42.09-211.26,144-144A51.17,51.17,0,0,1,1318.35,1099.81Z" transform="translate(-658.89 -264.78)"/><path class="cls-6" d="M2032.85,1099.81c67.24,101.93-42.09,211.26-144,144a51.1,51.1,0,0,1-14.52-14.52c-67.24-101.93,42.09-211.26,144-144A51.13,51.13,0,0,1,2032.85,1099.81Z" transform="translate(-658.89 -264.78)"/><circle class="cls-7" cx="1449.86" cy="1025.99" r="32.26" transform="translate(-454.01 2028) rotate(-80.78)"/><circle class="cls-7" cx="1734.84" cy="1025.99" r="32.26" transform="translate(-321.18 2213.91) rotate(-76.72)"/><circle class="cls-3" cx="771.03" cy="752.01" r="7.17"/><circle class="cls-3" cx="1056.02" cy="748.42" r="7.17"/><path class="cls-8" d="M1594.82,1202.87v-10.1c25,0,47.46-11.39,54.7-27.71l9.23,4.1C1649.8,1189.33,1624.11,1202.87,1594.82,1202.87Z" transform="translate(-658.89 -264.78)"/><path class="cls-8" d="M1594.82,1202.87c-29.29,0-55-13.54-63.94-33.71l9.24-4.1c7.24,16.32,29.73,27.71,54.7,27.71Z" transform="translate(-658.89 -264.78)"/><circle class="cls-9" cx="1407.74" cy="1172.06" r="34.95" transform="translate(-715.29 2008.08) rotate(-76.72)"/><circle class="cls-9" cx="1786.81" cy="1172.06" r="34.95" transform="translate(-964.32 1341.98) rotate(-45)"/><ellipse class="cls-4" cx="1488.44" cy="797.65" rx="335.95" ry="140.41" transform="translate(-857.39 609.77) rotate(-30.8)"/><ellipse class="cls-4" cx="1850.03" cy="836.42" rx="97.06" ry="233.81" transform="translate(-785.09 1037.17) rotate(-37.58)"/><ellipse class="cls-4" cx="1417.81" cy="744.52" rx="233.81" ry="97.06" transform="translate(-809.23 804.38) rotate(-39.4)"/><path class="cls-8" d="M1677.08,984.42a6.88,6.88,0,0,1-2.75-.57,7.06,7.06,0,0,1-3.75-9.27c10.28-24.24,39.76-40.52,73.35-40.52a7.07,7.07,0,1,1,0,14.13c-27.56,0-52.37,13.13-60.34,31.92A7.06,7.06,0,0,1,1677.08,984.42Z" transform="translate(-658.89 -264.78)"/><path class="cls-8" d="M1810.78,984.42a7.06,7.06,0,0,1-6.51-4.31c-8-18.79-32.78-31.92-60.34-31.92a7.07,7.07,0,1,1,0-14.13c33.59,0,63.07,16.28,73.35,40.52a7.09,7.09,0,0,1-6.5,9.84Z" transform="translate(-658.89 -264.78)"/><path class="cls-8" d="M1228.21,1073.83a19.85,19.85,0,0,1-3.73-.35,20.2,20.2,0,0,1-16.15-23.56c22.89-122.62,70.44-228.71,137.53-306.79,70-81.42,154.79-124.76,245.32-125.32a20.2,20.2,0,0,1,.25,40.4c-78.49.48-152.82,38.95-214.93,111.24-61.56,71.66-107.18,173.89-128.46,287.88A20.19,20.19,0,0,1,1228.21,1073.83Z" transform="translate(-658.89 -264.78)"/><path class="cls-8" d="M1970.56,1069.21a20.2,20.2,0,0,1-19.68-15.74C1925.14,939.68,1875.48,837.94,1811,767c-64.63-71.19-140-108.78-218.1-108.78h-1.64a20.2,20.2,0,0,1-.12-40.4H1593c89.77,0,175.48,42.17,248,122,70,77.14,121.68,182.51,149.33,304.73a20.2,20.2,0,0,1-19.72,24.66Z" transform="translate(-658.89 -264.78)"/><path class="cls-10" d="M1599.44,1383c-75.52,0-137-39.88-137-88.91h10.1c0,43.46,56.92,78.81,126.87,78.81s126.87-35.35,126.87-78.81h10.1C1736.41,1343.11,1675,1383,1599.44,1383Z" transform="translate(-658.89 -264.78)"/><circle class="cls-3" cx="1741.61" cy="482.74" r="160.15" transform="translate(-490.13 1108.11) rotate(-45)"/><circle class="cls-3" cx="1953.1" cy="576.29" r="105.17" transform="translate(-494.34 1285.06) rotate(-45)"/><circle class="cls-3" cx="1518.17" cy="445.5" r="105.17" transform="translate(-529.24 939.21) rotate(-45)"/><rect class="cls-3" x="1393.97" y="529.07" width="611.9" height="195.65" transform="translate(-406.35 -727.75) rotate(16.74)"/><rect class="cls-11" x="1236.76" y="2063.26" width="592.48" height="6.06" transform="matrix(0, -1, 1, 0, -1195.66, 3329.8)"/><path class="cls-12" d="M1523.45,1787.49,1729.35,1616a14.88,14.88,0,0,1,21,1.91l42.44,51a14.88,14.88,0,0,1-1.91,21l-205.9,171.49a14.88,14.88,0,0,1-21-1.91l-42.44-51A14.87,14.87,0,0,1,1523.45,1787.49Z" transform="translate(-658.89 -264.78)"/><rect class="cls-12" x="1370.75" y="1679.31" width="220.3" height="96.07" rx="14.87" transform="translate(1522.26 -702.25) rotate(58.53)"/><circle class="cls-13" cx="892.96" cy="1639.37" r="17.51"/><circle class="cls-13" cx="892.96" cy="1639.37" r="17.51"/><circle class="cls-13" cx="987.9" cy="1639.37" r="17.51"/><circle class="cls-13" cx="892.96" cy="1639.37" r="17.51"/><circle class="cls-13" cx="987.9" cy="1639.37" r="17.51"/><circle class="cls-13" cx="892.96" cy="1716.13" r="17.51"/><circle class="cls-13" cx="987.9" cy="1716.13" r="17.51"/><circle class="cls-13" cx="892.96" cy="1716.13" r="17.51"/><circle class="cls-13" cx="987.9" cy="1716.13" r="17.51"/><circle class="cls-13" cx="892.96" cy="1792.88" r="17.51"/><circle class="cls-13" cx="987.9" cy="1792.88" r="17.51"/><rect class="cls-13" x="1130.57" y="1670.43" width="157.54" height="42.41"/></g></svg>