<svg xmlns="http://www.w3.org/2000/svg" xmlns:xlink="http://www.w3.org/1999/xlink" viewBox="0 0 1200.12 1200.12"><defs><style>.cls-1{isolation:isolate;}.cls-2{fill:#96297f;}.cls-3{fill:#cecece;mix-blend-mode:multiply;}.cls-4{fill:#fec601;}.cls-5{fill:#e5a376;}.cls-6{fill:#141414;}.cls-7{fill:#1e181e;}.cls-8{fill:url(#linear-gradient);}.cls-9{fill:url(#linear-gradient-2);}.cls-10{fill:url(#linear-gradient-3);}.cls-11{fill:#211e21;}.cls-12{fill:#fff;}</style><linearGradient id="linear-gradient" x1="1849.24" y1="492.32" x2="1928.49" y2="492.32" gradientTransform="translate(105.49 -223.4) rotate(22.8)" gradientUnits="userSpaceOnUse"><stop offset="0.11" stop-color="#e89760"/><stop offset="0.45" stop-color="#edb183"/><stop offset="0.6" stop-color="#ecac7c"/><stop offset="0.81" stop-color="#e99d68"/><stop offset="0.88" stop-color="#e89760"/></linearGradient><linearGradient id="linear-gradient-2" x1="207.04" y1="1182.59" x2="286.28" y2="1182.59" gradientTransform="matrix(-0.92, 0.39, 0.39, 0.92, 1111.98, -223.4)" xlink:href="#linear-gradient"/><linearGradient id="linear-gradient-3" x1="1330.65" y1="943.23" x2="1673.4" y2="943.23" gradientTransform="matrix(1, 0, 0, 1, 0, 0)" xlink:href="#linear-gradient"/></defs><g class="cls-1"><g id="Layer_1" data-name="Layer 1"><path class="cls-2" d="M2103.06,1000c0,1.73,0,3.46,0,5.2a597.94,597.94,0,0,1-193.22,435.9q-2.74,2.54-5.52,5-6.22,5.61-12.59,11-2.4,2-4.83,4.06c-1.07.9-2.14,1.79-3.22,2.67-1.85,1.52-3.7,3-5.57,4.52l-.37.3-.55.44-1.42,1.12q-1.77,1.42-3.55,2.8c-1.2.94-2.4,1.88-3.61,2.8l-3.06,2.34c-.58.45-1.17.89-1.76,1.33l-1.32,1-.66.5-1.85,1.37c-.71.53-1.42,1.06-2.14,1.58l-1.56,1.15-.37.27-1.09.79-.41.3q-1.81,1.32-3.65,2.62-8.88,6.32-18,12.32-5.74,3.78-11.58,7.43-6.9,4.32-13.92,8.46a596,596,0,0,1-150.4,62.83l-2.57.67-2.06.54-3.58.9q-13.12,3.29-26.47,6-6.5,1.3-13.05,2.47l-.25,0c-2.48.45-5,.87-7.44,1.28q-4.76.78-9.52,1.49l-.43.06-2.69.39c-2.42.35-4.85.69-7.28,1l-.38,0c-1.66.22-3.33.43-5,.63q-9.94,1.21-20,2.1c-1.78.15-3.58.31-5.36.44l-.23,0c-2.72.22-5.43.41-8.16.59s-5.21.32-7.82.45q-15.68.81-31.54.82-7.49,0-14.91-.18c-1.95-.05-3.89-.11-5.84-.18l-.69,0-.52,0c-3.55-.13-7.1-.28-10.63-.48l-1.18-.06q-13.41-.73-26.65-2.07l-.66-.07-2.15-.22-2.25-.24c-2.77-.29-5.54-.61-8.29-1q-2.71-.33-5.42-.69-8.46-1.11-16.85-2.47l-2-.34-.32,0-3.61-.61c-2.91-.49-5.81-1-8.7-1.54s-5.63-1.07-8.43-1.64q-14.28-2.88-28.32-6.43l-1.74-.45-2.59-.67-1.47-.39a595.62,595.62,0,0,1-166.12-72.21q-7.83-4.92-15.5-10.09-5.37-3.62-10.65-7.35l-3.17-2.25q-4.53-3.24-9-6.56l-.39-.29q-6.39-4.76-12.62-9.66l-.71-.56c-1.46-1.15-2.91-2.3-4.36-3.47s-2.63-2.12-3.93-3.19-2.43-2-3.64-3l-1.5-1.25-2-1.65h0l-.3-.25-2.73-2.32c-1.58-1.34-3.16-2.71-4.73-4.08s-3.3-2.9-4.94-4.36C980.42,1337.84,902.94,1178,902.94,1000c0-331.4,268.65-600.06,600.06-600.06,247.87,0,460.65,150.3,552.15,364.74q7,16.34,13,33.16a596.31,596.31,0,0,1,28,110.52A604.53,604.53,0,0,1,2103.06,1000Z" transform="translate(-902.94 -399.94)"/><path class="cls-3" d="M2100.06,1000c0,1.73,0,3.46,0,5.2a597.94,597.94,0,0,1-193.22,435.9q-2.74,2.54-5.52,5-6.22,5.61-12.59,11-2.4,2-4.83,4.06c-1.07.9-2.14,1.79-3.22,2.67-1.85,1.52-3.7,3-5.57,4.52l-.37.3-.55.44-1.42,1.12q-1.77,1.42-3.55,2.8c-1.2.94-2.4,1.88-3.61,2.8l-3.06,2.34c-.58.45-1.17.89-1.76,1.33l-1.32,1s-.64,1.3-1.65,3.45l-1.56,1.15-.37.27-1.09.79-.41.3q-1.81,1.32-3.65,2.62-8.88,6.32-18,12.32-5.74,3.78-11.58,7.43-6.9,4.32-13.92,8.46c-33.46-30.69-48.74-80.59-50.23-84.32-2-5.08-77.46-78.91-151.14-150.27l0,0q-6.18-6-12.33-11.94c-7-6.83-14-13.59-20.93-20.23C1514.39,1194.34,1465,1147,1465,1147l4.47-19,13.69-58.16,4.79-20.36,3.21-13.61,45.38-192.76,1.4-5.95,7.08-30.08,2.9-12.32,7.61-32.31,9.91-42.11,32-135.9,8.83,4,458.88,209.34a596.31,596.31,0,0,1,28,110.52A604.53,604.53,0,0,1,2100.06,1000Z" transform="translate(-902.94 -399.94)"/><path class="cls-4" d="M1852.85,1346.77s-7.1,81.17-20.12,154.66q-5.74,3.78-11.58,7.43-6.9,4.32-13.92,8.46a596,596,0,0,1-150.4,62.83l-2.57.67-2.06.54-3.58.9q-13.12,3.29-26.47,6-6.5,1.3-13.05,2.47l-.25,0c-2.48.45-5,.87-7.44,1.28q-4.76.78-9.52,1.49l-.43.06-2.69.39c-2.42.35-4.85.69-7.28,1l-.38,0c-1.66.22-3.33.43-5,.63q-9.94,1.21-20,2.1c-1.78.15-3.58.31-5.36.44l-.23,0c-2.72.22-5.43.41-8.16.59s-5.21.32-7.82.45q-15.68.81-31.54.82-7.49,0-14.91-.18c-1.95-.05-3.89-.11-5.84-.18l-.69,0-.52,0c-3.55-.13-7.1-.28-10.63-.48l-1.18-.06q-13.41-.73-26.65-2.07l-.66-.07-2.15-.22-2.25-.24c-2.77-.29-5.54-.61-8.29-1q-2.71-.33-5.42-.69-8.46-1.11-16.85-2.47l-2-.34-.32,0-3.61-.61c-2.91-.49-5.81-1-8.7-1.54s-5.63-1.07-8.43-1.64q-14.28-2.88-28.32-6.43l-1.74-.45-2.59-.67-1.47-.39a595.62,595.62,0,0,1-166.12-72.21q-7.83-4.92-15.5-10.09c-12.63-72.56-19.51-151.22-19.51-151.22s58.42-61.27,148.3-106.19a494.79,494.79,0,0,1,45.87-20.14l5.07-1.9c2.44-.87,4.84-1.77,7.31-2.58,1.38-.48,2.76-1,4.14-1.41l1.14-.37c13.59-4.51,27.68-8.4,42.15-11.68,6.65-1.47,13.37-2.79,20.19-4l-9.7,30.56c0,9.82,10.09,18.89,23.78,26.24,13.45,7.24,30.37,12.82,44.6,15.82h0a99.54,99.54,0,0,0,19.23,2.49,100.56,100.56,0,0,0,19.65-2.58c17.17-3.66,38.12-11,52.19-20.49,9.47-6.36,15.83-13.68,15.83-21.48l-9.71-30.56c6.79,1.24,13.55,2.56,20.19,4,14.84,3.37,29.32,7.39,43.29,12,2.29.75,4.54,1.53,6.8,2.34L1652,1218l1.56.57c2.64,1,5.26,2,7.84,3C1775.31,1265.44,1852.85,1346.77,1852.85,1346.77Z" transform="translate(-902.94 -399.94)"/><path class="cls-5" d="M1651.27,1216.41c-25.66-8-51-20.16-75.14-32-.34.16-.68.29-1,.47l-29.45-92.76a44.56,44.56,0,0,0-89.11,0l-28.28,89.08a1.8,1.8,0,0,1-.2.62l-1.11,3.48c-1.07,0-2.17.13-3.26.21-6.1,4.08-13.5,6.14-20.15,9.17-10.66,4.86-21.39,9.58-32.06,14.42-4.81,2.17-9.59,4.41-14.36,6.66a2.27,2.27,0,0,1,.43.75c7.23,21.22,17.06,42.76,33.75,58.3a99.71,99.71,0,0,0,17,12.65,51.11,51.11,0,0,0,6,2c1.17.65,2.46,1.2,3.74,1.76l6.16-.55c-.56-1.35,0-3.11,1.82-2.9,28,3.2,55.66,8.54,83.75,10.62,19.53,1.45,40.09,2.05,59.51-1.92.36-.29.79-.52,1.12-.83.42.13.87.22,1.31.32a111.65,111.65,0,0,0,12.16-3.48c.86-.62,1.73-1.22,2.55-1.89a2.29,2.29,0,0,1,2.71-.13c2.54-1.05,5-2.18,7.51-3.47a2.12,2.12,0,0,1,2.67.52,62.89,62.89,0,0,0,15.5-13.92,31.65,31.65,0,0,0,7.63-11.61,10.72,10.72,0,0,0,.28-1.08C1639.49,1248.71,1660,1232.65,1651.27,1216.41Z" transform="translate(-902.94 -399.94)"/><path class="cls-6" d="M1661.41,1221.49c-13,29.47-37.58,53.18-68,67.9-26,12.61-57.86,17.54-89.53,18.17v.06l-1.53,0-1.56,0v-.06c-31.67-.63-63.51-5.56-89.53-18.17-30.8-14.91-55.55-39-68.47-69l5.07-1.9c2.44-.87,4.84-1.77,7.31-2.58,19.34,30.82,44.85,55.52,84.57,65.68a240.58,240.58,0,0,0,125.22,0c39.3-10.07,64.72-34.38,84-64.75,1.53.54,3.09,1.08,4.62,1.65C1656.21,1219.51,1658.83,1220.49,1661.41,1221.49Z" transform="translate(-902.94 -399.94)"/><path class="cls-7" d="M1446.87,1035.32c-1.74-34.18-12.24-69.3-28.12-99.54A200.45,200.45,0,0,0,1402.12,909c15.37-.6,31.63-1.51,48.47-2.68l-1.79-16.07c19.46.51,39.27.79,59,.83V770.23H1357.46s-7.78,7.42-25.93,18.14c-9.9,21.81-24.22,44.32-37.62,64.23-5.42,8.06-10.56,16.19-15.07,24.57,4.14.68,8.5,1.33,13,2-9.74,10.69-14.26,18.85-8.95,21.56,4.73,2.42,11.91,4.31,21,5.73,4.36,13,10.22,26,14.22,38.42,7.28,22.63,13.94,45.57,18.67,68.89,4.67,23,8.32,46.76,7.32,70.33-1,24-7.83,45-19.87,65.78-8.24,14.19-20.56,28.12-26.2,44.83-4.24,12.55-3.26,26.25-2,39.63,2.26,23.75,12.67,45.43,25.33,65.3a131.68,131.68,0,0,0,12.55,16.48,133.57,133.57,0,0,0,14.6,10.86c26.31,16.89,54.58,16.47,83.88,8.33,13.21-3.67,26.17-7.75,39.13-10C1405.48,1300.16,1449.58,1088.56,1446.87,1035.32Z" transform="translate(-902.94 -399.94)"/><path class="cls-8" d="M1692.58,977.76c-13.32,31.7-40.48,50.53-60.65,42s-25.73-41.06-12.4-72.76,40.48-50.52,60.66-42S1705.91,946.06,1692.58,977.76Z" transform="translate(-902.94 -399.94)"/><path class="cls-9" d="M1306.31,977.76c13.33,31.7,40.49,50.53,60.66,42s25.72-41.06,12.4-72.76-40.48-50.52-60.66-42S1293,946.06,1306.31,977.76Z" transform="translate(-902.94 -399.94)"/><path class="cls-10" d="M1673.4,925.33c0,94.64-76.73,207.17-171.37,207.17S1330.65,1020,1330.65,925.33a171.38,171.38,0,0,1,342.75,0Z" transform="translate(-902.94 -399.94)"/><path class="cls-6" d="M1515.81,1361.76c-4.59-3.88-9.83-5-15.68-4.89l-1.71,0c-11.48.27-20.25,11.6-19.43,22.6a21.26,21.26,0,0,0,7.08,14.21c4.53,4,9.66,5.12,15.52,5.21l2.64,0c5.2.06,10.9-3.61,14.11-7.42a21.12,21.12,0,0,0-2.53-29.79Z" transform="translate(-902.94 -399.94)"/><path class="cls-6" d="M1515.81,1492.18c-4.59-3.89-9.83-5-15.68-4.89l-1.71,0c-11.48.27-20.25,11.6-19.43,22.6a21.26,21.26,0,0,0,7.08,14.22c4.53,4,9.66,5.12,15.52,5.21l2.64,0c5.2.06,10.9-3.6,14.11-7.41a21.12,21.12,0,0,0-2.53-29.79Z" transform="translate(-902.94 -399.94)"/><path class="cls-11" d="M1639.64,763c-36.27-35.46-83.67-50.61-132.72-50.38-45.39.21-96.69,11.59-132.1,43-43,38.07-39.47,97.3-57.37,148.1a175.28,175.28,0,0,1-4.57,21.39,6,6,0,0,0,3.8,1.46c97.55,3.89,187.54-67.28,228.23-157.58-.79,36.44,19.25,67.76,48.31,88,15.39,10.71,28.84,22.59,43,35,8.41,7.34,32.87,17,40.18,19.56C1675.63,906,1675.32,797.89,1639.64,763Z" transform="translate(-902.94 -399.94)"/><path class="cls-12" d="M1443.55,1035.9a65.11,65.11,0,0,0,117.27,0Z" transform="translate(-902.94 -399.94)"/><rect class="cls-12" x="383.1" y="1008.63" width="96.23" height="25.47"/><path class="cls-6" d="M1723.78,811.25c-13.17,15.77-26.53,32.21-40.52,44.9-3.33,3-6.69,5.83-10.1,8.36a94.54,94.54,0,0,1-8.76,5.84h0c-8.7,5.08-17.69,8.15-27.08,8.28a46.17,46.17,0,0,1-16.26-2.73,60.43,60.43,0,0,1-16.34-8.75,64.49,64.49,0,0,1-9.6-8.88c-9.42-10.62-15.83-24.53-18.65-40.08-.23-1.19-.42-2.4-.6-3.61a18.43,18.43,0,0,1-3.09,2.31,32.81,32.81,0,0,1-13.83,4c-11.52,1.06-26.07-1.48-39.89-6.27-3.82-1.32-7.58-2.81-11.21-4.46-16.1-7.26-29.55-17.38-33.43-27.89a18.24,18.24,0,0,1-1-3.74c-.9.84-1.81,1.65-2.73,2.44-15.65,13.56-34.32,21.06-52.71,20.44a60.49,60.49,0,0,1-18.2-3.41,48.19,48.19,0,0,1-8.15-3.73,44.81,44.81,0,0,1-6.25-4.34A52.78,52.78,0,0,1,1371,770.23a84.35,84.35,0,0,1-3-8,110.28,110.28,0,0,1-3-11.56c-.48-2.26-.89-4.57-1.27-6.92-3-18.7-3.07-39.94-3.45-60.55-.83-45.11,37-140.63,117.78-107.37,15.54,6.4,85,.67,119.4,8.64l0-.13c.25.08.52.13.76.22s.63.27.94.4.67.16,1,.27.48.22.72.31l0,.13c12.33,6,27.47,16.81,42.33,28.15,23.48,17.91,46.25,37,56.12,39.94C1783.08,678.48,1752.7,776.61,1723.78,811.25Z" transform="translate(-902.94 -399.94)"/><path class="cls-4" d="M1691.36,878.16a18.33,18.33,0,0,1-21.62,11.78,15.57,15.57,0,0,1-1.85-.54l-30.58-10.77-28.56-10.06-4-1.42L1507.84,833l-2.09-.74L1418,801.38l-24.55-8.64-8-2.84-29.84-10.51-.54-.2a17.92,17.92,0,0,1-5-2.94,18.38,18.38,0,0,1-5.68-20.33,18,18,0,0,1,1.4-3,18.43,18.43,0,0,1,16-9.24,17.45,17.45,0,0,1,2,.12,18.55,18.55,0,0,1,4.07.93l.56.2,13.65,4.8L1434,768l6.33,2.23,30.4,10.71,3.7,1.3L1507.84,794l20.05,7.06,25.39,8.94,19.49,6.87,3.69,1.3,77.18,27.18,18,6.33,8.52,3a18.39,18.39,0,0,1,11.24,23.46Z" transform="translate(-902.94 -399.94)"/><path class="cls-12" d="M1444.82,572.57c-33.19,1.93-58,41.44-56.82,72.43.13,3.29,5.22,4.23,5.9.76,2.91-14.81,6.64-29,14.79-41.92a59.39,59.39,0,0,1,37.13-26.55C1448.57,576.63,1447.47,572.41,1444.82,572.57Z" transform="translate(-902.94 -399.94)"/><path class="cls-12" d="M1387,665.34c-7.29,0-7.32,11.32,0,11.32S1394.31,665.34,1387,665.34Z" transform="translate(-902.94 -399.94)"/><path class="cls-12" d="M1602.68,590.84c-13.35.29-26.71.93-40.06.64-6-.13-12-.52-17.95-1.24-5.78-.71-12.12-3-17.9-2.33-3.28.38-3.65,4.28-1.1,5.89,4.81,3,11.87,3.14,17.41,3.72a184.69,184.69,0,0,0,18.81,1c13.92,0,27.64-1.66,41.43-3.33C1606.2,594.82,1605.41,590.78,1602.68,590.84Z" transform="translate(-902.94 -399.94)"/><path class="cls-12" d="M1504,590.74a88,88,0,0,0-20-4.25c-6.12-.65-13.57-1.51-19.53.27a2.33,2.33,0,0,0-.09,4.46c5.66,1.62,12.14.9,18,1.19a90.79,90.79,0,0,1,20.28,3C1505.3,596.2,1506.63,591.67,1504,590.74Z" transform="translate(-902.94 -399.94)"/><path class="cls-12" d="M1365.85,773.58c-6.14-4.07-10.7-8.81-11.26-16.5-.14-2-3.13-2.27-3.18-.16-.23,9.12,4.59,16.41,13.15,19.68C1366.38,777.29,1367.34,774.56,1365.85,773.58Z" transform="translate(-902.94 -399.94)"/></g></g></svg>